# xmcd
#
# Track frame offsets: 
#        150
#        12273
#        32937
#        54516
#        74352
#        91578
#        112719
#        133888
#        145949
#        163326
#        185190
#        205720
#        229417
#        240136
#
# Disc length: 3432 seconds
#
# Revision: 0
# Processed by: cddbd v1.5.2PL0 Copyright (c) Steve Scherf et al.
# Submitted via: ExactAudioCopy v1.0b1
#
DISCID=bf0d660e
DTITLE=Haittavaikutus - Oma lehmä ojassa
DYEAR=2011
DGENRE=Hip-Hop
TTITLE0=Avajainen (intro beat)
TTITLE1=Vastatoimi
TTITLE2=Oma lehmä ojassa
TTITLE3=Huuda, huuda!
TTITLE4=Turha kokeilla
TTITLE5=Kotirintama
TTITLE6=Matkalla
TTITLE7=Telepaattista seksiä
TTITLE8=Vitun pedarit (feat. Dima-One)
TTITLE9=Rakenna, tuhoa
TTITLE10=Ihanasti pilalla
TTITLE11=Pako tulevaisuudesta (feat. JFK)
TTITLE12=Lopetus
TTITLE13=Oma lehmä ojassa (remix)
EXTD=
EXTT0=
EXTT1=
EXTT2=
EXTT3=
EXTT4=
EXTT5=
EXTT6=
EXTT7=
EXTT8=
EXTT9=
EXTT10=
EXTT11=
EXTT12=
EXTT13=
PLAYORDER=
